PathFileType	4	(X/Y/Z)	Walk4.trc
DataRate	CameraRate	NumFrames	NumMarkers	Units	OrigDataRate	OrigDataStartFrame	OrigNumFrames
200.000000	200.000000	7	58	mm	200.000000	513	550
Frame#	Times		RBHD		C7		RASI		RACR1		RUA1		RElbow		RFA1		RWRU		RCAR		LFA1		RTH2		RTH3		RBack		LTH2		LElbowM		RLFC		RTB1		RTB3		LTH3		RTH1		RTH4		RMT1		RMT5		LElbow		RTB2		LTH4		LACR1		RTB4		LWRR		LWRU		RMMAL		CLAV		LASI		LPSI		LTB1		LBHD		RPSI		LLFC		T10		RWRR		LFHD		LTB3		LCAR		LTH1		LTB4		RFHD		LMT1		LCAL		RToe		LMMAL		RElbowM		LMT5		RLMAL		LLMAL		LTB2		LToe		LUA1		RCAL
			X1	Y1	Z1	X2	Y2	Z2	X3	Y3	Z3	X4	Y4	Z4	X5	Y5	Z5	X6	Y6	Z6	X7	Y7	Z7	X8	Y8	Z8	X9	Y9	Z9	X10	Y10	Z10	X11	Y11	Z11	X12	Y12	Z12	X13	Y13	Z13	X14	Y14	Z14	X15	Y15	Z15	X16	Y16	Z16	X17	Y17	Z17	X18	Y18	Z18	X19	Y19	Z19	X20	Y20	Z20	X21	Y21	Z21	X22	Y22	Z22	X23	Y23	Z23	X24	Y24	Z24	X25	Y25	Z25	X26	Y26	Z26	X27	Y27	Z27	X28	Y28	Z28	X29	Y29	Z29	X30	Y30	Z30	X31	Y31	Z31	X32	Y32	Z32	X33	Y33	Z33	X34	Y34	Z34	X35	Y35	Z35	X36	Y36	Z36	X37	Y37	Z37	X38	Y38	Z38	X39	Y39	Z39	X40	Y40	Z40	X41	Y41	Z41	X42	Y42	Z42	X43	Y43	Z43	X44	Y44	Z44	X45	Y45	Z45	X46	Y46	Z46	X47	Y47	Z47	X48	Y48	Z48	X49	Y49	Z49	X50	Y50	Z50	X51	Y51	Z51	X52	Y52	Z52	X53	Y53	Z53	X54	Y54	Z54	X55	Y55	Z55	X56	Y56	Z56	X57	Y57	Z57	X58	Y58	Z58

513	2.565	1160.2	1588.6	426.2	1127.5	1454	350.75	1222.7	959.81	472.21	1197.3	1403.6	491.05	1172.8	1214.6	576.72	1141.1	1086.7	612.83	1216.7	956.63	630.05	1241.6	829.44	622.16	1298.8	791.36	627.17	1142.9	1002	26.013	1240.5	661.96	475.14	1175.9	561.31	488.13	1060.2	1354.8	445.46	1327.9	706.2	156.09	1036.1	1135.1	137.83	1174.6	458.24	471.36	1194.7	364.82	385.66	1158.5	177.85	379.24	1303.9	592.73	143.02	1171.6	748.74	519.38	1175.4	651.94	507.38	1236.3	36.669	332.65	1211.1	30.449	423.78	1054.8	1136.8	57.631	1171.1	269.23	456.75	1262.1	672.12	132.7	1158.2	1449.8	171.73	1180.4	273.36	384.17	1194.8	897.72	69.532	1127.1	883.89	27.306	1112.2	95.915	332.01	1261.2	1374.7	327.19	1216.6	959.45	170.16	1044.5	970.72	265.55	1349.6	388.32	217.49	1160.6	1599.2	288.14	1042	975.36	371.76	1337	490.07	159.1	1034.6	1143.7	324.94	1306.2	848.56	582.6	1316.2	1621.2	328.92	1237	241.44	233.46	1202.5	845.45	20.669	1218.9	759.93	132.05	1291.4	315.8	226.33	1027.7	1658.5	465.05	1237.8	66.018	276.22	1055.2	149.31	267.36	1290.5	26.545	351.75	1157.4	169.42	297.13	1116	1055.9	521.73	1209.6	72.602	197.96	1089.8	80.22	420.03	1113.5	170.91	215.54	1261	331.79	162.92	1277.1	62.619	251.79	1098.7	1261.2	73.733	1035.2	34.044	380.67
514	2.57	1166	1588.7	425.48	1133.4	1453.8	350.72	1228.2	959.52	472.56	1203.4	1403.9	490.72	1179.7	1215.3	577.32	1149.1	1087.1	613.79	1227.1	958.3	630.73	1254.5	831.46	622.59	1312.2	794.63	627.15	1145.6	1001.5	26.145	1243.9	661.35	475.16	1178.7	562.07	489.61	1066.2	1354.8	445.67	1334.9	707.57	156.01	1040.3	1134.9	138.44	1176.2	458.07	471.71	1196	364.58	385.74	1159	177.74	379.25	1312	594	142.92	1175.9	748.75	519.61	1178.9	651.46	507.49	1236.3	36.616	332.65	1210.8	29.861	423.41	1058.4	1136.6	58.326	1172.8	269.12	456.75	1269.6	672.9	132.35	1163.8	1449.3	171.67	1181	273.03	384.3	1195.9	896.46	69.958	1129.3	883.35	28.158	1113.3	96.053	331.54	1267.1	1374.6	327.1	1222.9	959.31	170.58	1050.4	970.63	265.58	1360.7	389.93	217.55	1166.3	1599.1	287.58	1047.9	975.44	371.17	1343.8	490.84	159.71	1040.5	1143.3	325.05	1318.6	852.21	582.85	1320.5	1621.5	329.14	1252.7	239.7	233.83	1205.8	844.77	19.906	1225.6	760.49	131.83	1304.8	315.7	226.53	1034.6	1658.5	464.22	1258.8	64.303	275.98	1074.1	142.55	268.04	1290.6	26.434	351.49	1175.3	165.29	297.79	1124.6	1055.7	522.91	1230.4	70.416	197.84	1090	80.142	419.81	1130.7	165.49	216.42	1273.9	330.74	163.12	1298.1	62.324	251.31	1102.8	1260.9	74.118	1035.2	34.235	380.59
515	2.575	1171.6	1589	425.08	1139.1	1454	350.43	1233.8	959.12	472.91	1209.2	1404.1	490.87	1186.5	1215.8	577.93	1157.2	1087.2	614.67	1237.5	959.8	631.36	1267.1	833.58	622.84	1325.9	797.84	626.92	1148.3	1000.8	26.37	1247.4	660.78	475.12	1181.4	562.57	490.89	1072.3	1354.8	445.79	1341.8	708.73	156.08	1044.4	1134.7	139.08	1178.1	457.81	471.83	1197	364.33	385.81	1159.5	177.57	379.2	1319.9	594.97	142.74	1180.2	748.77	519.69	1182.5	651.16	507.52	1236.4	36.556	332.6	1210.6	29.068	422.63	1062.1	1136.5	59.016	1173.7	268.93	456.74	1276.8	673.6	132.26	1169.3	1448.7	171.52	1181.7	272.84	384.41	1196.9	895.09	70.43	1131.9	882.73	29.694	1113.5	96.052	331.62	1273.1	1374.5	326.96	1229	959.14	170.85	1056.2	970.77	265.56	1371.7	391.43	217.59	1172.1	1598.8	286.94	1053.3	975.84	370.45	1352.1	492.14	159.85	1046.3	1143.2	325.12	1331	855.93	583.26	1324.7	1621.9	329.69	1268.3	237.97	234.13	1208.2	843.82	19.598	1232	760.9	131.69	1318.1	315.62	226.65	1041.4	1658.5	463.43	1280.3	62.999	275.49	1093.6	135.54	268.58	1290.7	26.529	351.54	1193.3	161.08	298.28	1133.2	1055.6	524.02	1251.3	68.629	197.72	1090.2	80.108	419.57	1148.7	160.06	217.1	1286.8	329.59	163.19	1319.6	61.991	250.84	1107	1260.6	74.601	1035.2	34.412	380.48
516	2.58	1177.8	1589	424.57	1145.1	1453.7	350.25	1239.1	958.56	473.31	1215	1404.1	490.74	1193.3	1216.2	578.48	1165.2	1087.4	615.76	1248	961.23	632.01	1279.9	835.75	622.89	1339.5	801.27	626.85	1150.9	1000.1	26.551	1250.9	660.24	475.05	1184.1	562.52	491.46	1078.2	1354.6	445.96	1348.8	709.74	156.15	1048.7	1134.5	139.93	1180.1	457.53	472	1198.4	364.07	385.9	1160.1	177.46	379.22	1327.7	595.95	142.72	1184.7	748.71	520.07	1186	650.78	507.39	1236.5	36.519	332.54	1210.5	28.208	421.64	1066	1136.3	59.963	1174.5	268.57	456.88	1283.8	674.36	132.14	1174.7	1448.2	171.38	1182.7	272.7	384.36	1197.7	893.62	70.943	1134.5	881.68	31.123	1112.7	95.584	331.81	1279.1	1374.3	326.81	1235.2	958.76	171.18	1062.2	970.59	265.21	1382.6	392.78	217.6	1178	1598.4	286.34	1058.8	976	369.77	1361	493.19	159.79	1052.2	1143.1	325.12	1343.1	859.59	583.52	1329.4	1622	330.13	1283.9	236.18	234.41	1209.6	842.79	19.628	1238.3	761.17	131.65	1331.4	315.36	226.79	1048.2	1658.3	462.65	1301.9	61.909	275.08	1112.9	128.24	269.22	1291	26.616	351.85	1211.7	156.82	298.76	1141.7	1055.3	525.08	1272.3	66.922	197.83	1090.4	80.1	419.42	1167.2	154.85	217.57	1299.8	328.47	163.22	1340.9	61.769	250.21	1111.1	1260.2	75.082	1035.2	34.581	380.46
517	2.585	1183.7	1589	424.24	1151.1	1453.3	350.21	1244.5	958.1	473.67	1221.1	1404.2	490.61	1200	1216.5	579.06	1173.2	1087.5	616.91	1258.3	962.83	632.63	1292.4	837.9	622.76	1352.6	804.64	626.94	1153.6	999.36	26.728	1254.5	659.69	474.92	1186.9	562.41	491.84	1084.1	1354.4	446.09	1355.8	710.7	156.14	1053	1134.2	140.82	1182.1	457.35	472.11	1199.9	363.64	385.93	1160.7	177.27	379.3	1335.4	596.85	142.76	1189.2	748.5	519.81	1188.6	652.39	506.45	1236.4	36.697	332.79	1210.4	27.505	420.71	1070.1	1135.8	61.582	1175.8	268.14	457.08	1291.1	674.83	131.97	1180.4	1447.6	171.2	1184	272.52	384.29	1198.5	892.06	71.49	1136.9	880.57	32.04	1112.3	95.364	331.92	1285	1374.1	326.66	1241.3	958.46	171.43	1068.1	970.41	264.96	1393.3	394.12	217.57	1183.9	1597.9	285.74	1064.2	975.99	369.52	1370	494.12	159.6	1058.2	1142.9	324.96	1355.4	863.18	583.84	1333.9	1622.1	330.74	1299.7	234.42	234.62	1210.8	841.72	19.53	1244.9	761.39	131.44	1344.6	315.15	226.77	1054.9	1658.1	461.81	1323.7	60.866	274.79	1131.7	121.2	270.2	1291.2	26.544	352.26	1229.7	153.11	298.77	1150.2	1054.9	526.22	1293.2	64.871	198.03	1090.6	80.099	419.29	1186	149.56	218	1312.5	327.26	163.38	1362.2	61.467	249.43	1115.4	1259.7	75.441	1035.3	34.872	380.36
518	2.59	1189.5	1589	423.73	1157.2	1453	350.09	1250	957.4	473.91	1227.3	1404.2	490.45	1206.7	1216.8	579.65	1181.3	1087.8	617.91	1268.6	964.36	633.27	1305.2	839.8	621.66	1365.6	808.11	626.9	1156.4	998.49	26.944	1258.1	659.11	474.92	1190	562.1	491.86	1090.2	1354.1	446.39	1362.9	711.55	156.18	1057.2	1133.7	141.65	1184.2	457.09	472.17	1201.4	363.29	385.88	1161.2	177.18	379.3	1342.8	597.41	142.87	1193.5	748.38	519.67	1191.8	653.17	506.19	1236.7	37.541	336.06	1210.5	28.178	421.25	1074.5	1135	63.314	1176.9	268.07	456.87	1298.3	675.28	131.73	1186	1447	171.08	1185.2	272.16	384.24	1199.1	890.42	72.06	1139.1	879.88	32.517	1112.3	95.411	331.85	1290.9	1373.7	326.46	1247.4	957.95	171.68	1074	970.12	264.65	1403.9	395.4	217.53	1189.8	1597.3	285.17	1069.9	975.63	369.43	1378.5	494.79	159.58	1064	1142.7	324.88	1367.3	866.95	584.04	1338.2	1622.2	331.18	1315.4	232.66	234.78	1211.6	840.54	19.675	1251.5	761.6	131.12	1357.6	314.72	226.9	1061.6	1657.8	461	1345.3	59.94	274.6	1151.5	113.79	270.9	1291.5	26.351	352.58	1248.7	148.85	299.33	1158.6	1054.6	527.33	1314.4	62.891	197.98	1090.9	80.13	419.18	1204.8	144.15	218.42	1325.1	325.91	163.53	1383.8	61.567	248.84	1120	1259.2	75.849	1035.4	34.944	380.43
519	2.595	1195.3	1588.8	423.2	1163.1	1452.6	350.12	1256.2	956.87	473.83	1233.2	1404.2	490.33	1213.3	1217	580.23	1189.5	1088.1	618.94	1278.7	965.82	633.93	1317.4	841.04	620.45	1378.8	811.53	626.87	1159.3	997.69	27.155	1261.8	658.4	474.8	1193.2	561.54	491.68	1096.4	1353.8	446.5	1369.2	712.1	156.5	1061.6	1133.2	142.35	1186.4	456.75	472.28	1203	362.87	385.97	1161.9	177.04	379.29	1350.1	598.05	142.99	1197.9	748.12	519.6	1195.6	653.16	506.66	1237	38.287	336.47	1210.8	29.182	422.39	1078.9	1134.1	65.049	1178	267.76	456.86	1305.1	675.62	131.63	1191.6	1446.2	170.98	1186.2	271.79	384.31	1199.7	888.7	72.643	1140.8	879.46	32.398	1112.7	95.65	331.65	1296.6	1373.3	326.54	1253.6	957.58	171.93	1079.9	969.84	264.76	1413.8	396.42	217.58	1195.6	1596.7	284.58	1075.7	975.26	369.36	1386.2	495.22	159.84	1069.9	1142.3	324.71	1379.3	870.69	584.33	1342.5	1622.1	331.59	1331.1	230.88	234.82	1212.4	839.17	19.742	1258.5	761.76	130.77	1370.6	314.41	226.84	1068.4	1657.4	460.18	1366.9	59.076	274.39	1171.8	106.27	271.53	1291.7	26.078	352.78	1267.7	144.77	299.67	1166.9	1054.2	528.53	1335.6	61.258	197.77	1091.1	80.146	419.09	1223.6	138.83	218.81	1337.6	324.5	163.57	1405.5	61.996	248.58	1124.4	1258.6	76.305	1035.4	35.019	380.53
